<svg xmlns="http://www.w3.org/2000/svg" viewBox="0 0 116.09 63.46"><defs><style>.cls-1{fill:#f1f4f9;}.cls-2,.cls-3,.cls-4{fill:none;stroke-width:2px;}.cls-2,.cls-3{stroke:#4158a4;stroke-miterlimit:10;}.cls-2,.cls-4{stroke-linecap:round;}.cls-4{stroke:#4256a5;stroke-linejoin:round;}</style></defs><title>Asset 18</title><g id="Layer_2" data-name="Layer 2"><g id="Layer_1-2" data-name="Layer 1"><circle class="cls-1" cx="24.51" cy="27.3" r="19"/><circle class="cls-1" cx="25.55" cy="27.34" r="22.06"/><circle class="cls-1" cx="25.26" cy="28.75" r="5.14"/><path class="cls-1" d="M56.76,59.3C45.51,63.8,38.26,46.76,39.07,37c1.44-13.75,8.88-9,17.44-9,9,0,16-7.5,17.58,11C74.93,48.76,68,63.55,56.76,59.3Z"/><path class="cls-1" d="M70.6,24.63l4-9.44c1-2.26,1.51-4.36,3.65-3.45l-.28,0A3.6,3.6,0,0,1,76.24,7a3.6,3.6,0,0,1,4.67-2l16.61,7.1,16.49,7a3.71,3.71,0,0,1-2.91,6.8s.47.06-.18-.22c2.14.92,1.69,3.05.72,5.32L99,60.69a4.37,4.37,0,0,1-5.65,2.45L70,53.8"/><path class="cls-2" d="M17.85,46.85A22.27,22.27,0,1,1,36.66,7.47"/><path class="cls-2" d="M23.26,47.51a22.31,22.31,0,0,1-5.41-.66"/><path class="cls-2" d="M23.26,47.51"/><path class="cls-2" d="M29.52,46.62l-.81.22"/><path class="cls-2" d="M33.37,45.09a22.12,22.12,0,0,1-3.85,1.53"/><circle class="cls-3" cx="23.26" cy="25.25" r="5.14"/><path class="cls-3" d="M54,26c9,0,16-7.5,17.58,11,.83,9.71-6.08,24.5-17.33,20.25C43,61.8,35.76,44.76,36.57,35,38,21.3,45.45,26,54,26Z"/><path class="cls-2" d="M54.08,24.38c-.07-5-.57-5.83,3.43-10.58"/><path class="cls-4" d="M41.21,6.11l-.74-.21A11.52,11.52,0,0,0,42.15,15a15.3,15.3,0,0,0,7.61,5.88l.68.24a13.46,13.46,0,0,0-1.58-9A13.54,13.54,0,0,0,41.21,6.11Z"/><line class="cls-4" x1="81.85" y1="56.11" x2="72.27" y2="52.01"/><path class="cls-4" d="M68.08,20.94l4-9.44c1-2.26,1.51-4.36,3.65-3.45l-.28,0A3.6,3.6,0,0,1,73.72,3.3a3.6,3.6,0,0,1,4.67-2L95,8.37l16.49,7a3.71,3.71,0,0,1-2.91,6.8s.47.06-.18-.22c2.14.92,1.69,3.05.72,5.32L96.44,57a4.37,4.37,0,0,1-5.65,2.45l-4.3-1.84"/><path class="cls-4" d="M77.85,9.38"/></g></g></svg>