<svg xmlns="http://www.w3.org/2000/svg" viewBox="0 0 116.09 63.46" style=""><defs><style>.cls-1{fill:#f1f4f9;}.cls-2,.cls-3,.cls-4{fill:none;stroke-width:2px;}.cls-2,.cls-3{stroke:#4158a4;stroke-miterlimit:10;}.cls-2,.cls-4{stroke-linecap:round;}.cls-4{stroke:#4256a5;stroke-linejoin:round;}</style></defs><title>Asset 18</title><g id="Layer_2" data-name="Layer 2"><g id="Layer_1-2" data-name="Layer 1"><path class="cls-1 dkmbDtoT_0" d="M5.510000000000002,27.3A19,19 0,1,1 43.510000000000005,27.3A19,19 0,1,1 5.510000000000002,27.3"></path><path class="cls-1 dkmbDtoT_1" d="M3.490000000000002,27.34A22.06,22.06 0,1,1 47.61,27.34A22.06,22.06 0,1,1 3.490000000000002,27.34"></path><path class="cls-1 dkmbDtoT_2" d="M20.12,28.75A5.14,5.14 0,1,1 30.400000000000002,28.75A5.14,5.14 0,1,1 20.12,28.75"></path><path class="cls-1 dkmbDtoT_3" d="M56.76,59.3C45.51,63.8,38.26,46.76,39.07,37c1.44-13.75,8.88-9,17.44-9,9,0,16-7.5,17.58,11C74.93,48.76,68,63.55,56.76,59.3Z"></path><path class="cls-1 dkmbDtoT_4" d="M70.6,24.63l4-9.44c1-2.26,1.51-4.36,3.65-3.45l-.28,0A3.6,3.6,0,0,1,76.24,7a3.6,3.6,0,0,1,4.67-2l16.61,7.1,16.49,7a3.71,3.71,0,0,1-2.91,6.8s.47.06-.18-.22c2.14.92,1.69,3.05.72,5.32L99,60.69a4.37,4.37,0,0,1-5.65,2.45L70,53.8"></path><path class="cls-2 dkmbDtoT_5" d="M17.85,46.85A22.27,22.27,0,1,1,36.66,7.47"></path><path class="cls-2 dkmbDtoT_6" d="M23.26,47.51a22.31,22.31,0,0,1-5.41-.66"></path><path class="cls-2 dkmbDtoT_7" d="M23.26,47.51"></path><path class="cls-2 dkmbDtoT_8" d="M29.52,46.62l-.81.22"></path><path class="cls-2 dkmbDtoT_9" d="M33.37,45.09a22.12,22.12,0,0,1-3.85,1.53"></path><path class="cls-3 dkmbDtoT_10" d="M18.12,25.25A5.14,5.14 0,1,1 28.400000000000002,25.25A5.14,5.14 0,1,1 18.12,25.25"></path><path class="cls-3 dkmbDtoT_11" d="M54,26c9,0,16-7.5,17.58,11,.83,9.71-6.08,24.5-17.33,20.25C43,61.8,35.76,44.76,36.57,35,38,21.3,45.45,26,54,26Z"></path><path class="cls-2 dkmbDtoT_12" d="M54.08,24.38c-.07-5-.57-5.83,3.43-10.58"></path><path class="cls-4 dkmbDtoT_13" d="M41.21,6.11l-.74-.21A11.52,11.52,0,0,0,42.15,15a15.3,15.3,0,0,0,7.61,5.88l.68.24a13.46,13.46,0,0,0-1.58-9A13.54,13.54,0,0,0,41.21,6.11Z"></path><path class="cls-4 dkmbDtoT_14" d="M81.85,56.11L72.27,52.01"></path><path class="cls-4 dkmbDtoT_15" d="M68.08,20.94l4-9.44c1-2.26,1.51-4.36,3.65-3.45l-.28,0A3.6,3.6,0,0,1,73.72,3.3a3.6,3.6,0,0,1,4.67-2L95,8.37l16.49,7a3.71,3.71,0,0,1-2.91,6.8s.47.06-.18-.22c2.14.92,1.69,3.05.72,5.32L96.44,57a4.37,4.37,0,0,1-5.65,2.45l-4.3-1.84"></path><path class="cls-4 dkmbDtoT_16" d="M77.85,9.38"></path></g></g><style>.dkmbDtoT_0{stroke-dasharray:120 122;stroke-dashoffset:121;animation:dkmbDtoT_draw 2000ms linear 0ms forwards;}.dkmbDtoT_1{stroke-dasharray:139 141;stroke-dashoffset:140;animation:dkmbDtoT_draw 2000ms linear 62ms forwards;}.dkmbDtoT_2{stroke-dasharray:33 35;stroke-dashoffset:34;animation:dkmbDtoT_draw 2000ms linear 125ms forwards;}.dkmbDtoT_3{stroke-dasharray:116 118;stroke-dashoffset:117;animation:dkmbDtoT_draw 2000ms linear 187ms forwards;}.dkmbDtoT_4{stroke-dasharray:146 148;stroke-dashoffset:147;animation:dkmbDtoT_draw 2000ms linear 250ms forwards;}.dkmbDtoT_5{stroke-dasharray:79 81;stroke-dashoffset:80;animation:dkmbDtoT_draw 2000ms linear 312ms forwards;}.dkmbDtoT_6{stroke-dasharray:6 8;stroke-dashoffset:7;animation:dkmbDtoT_draw 2000ms linear 375ms forwards;}.dkmbDtoT_7{stroke-dasharray:0 2;stroke-dashoffset:1;animation:dkmbDtoT_draw 2000ms linear 437ms forwards;}.dkmbDtoT_8{stroke-dasharray:1 3;stroke-dashoffset:2;animation:dkmbDtoT_draw 2000ms linear 500ms forwards;}.dkmbDtoT_9{stroke-dasharray:5 7;stroke-dashoffset:6;animation:dkmbDtoT_draw 2000ms linear 562ms forwards;}.dkmbDtoT_10{stroke-dasharray:33 35;stroke-dashoffset:34;animation:dkmbDtoT_draw 2000ms linear 625ms forwards;}.dkmbDtoT_11{stroke-dasharray:116 118;stroke-dashoffset:117;animation:dkmbDtoT_draw 2000ms linear 687ms forwards;}.dkmbDtoT_12{stroke-dasharray:12 14;stroke-dashoffset:13;animation:dkmbDtoT_draw 2000ms linear 750ms forwards;}.dkmbDtoT_13{stroke-dasharray:41 43;stroke-dashoffset:42;animation:dkmbDtoT_draw 2000ms linear 812ms forwards;}.dkmbDtoT_14{stroke-dasharray:11 13;stroke-dashoffset:12;animation:dkmbDtoT_draw 2000ms linear 875ms forwards;}.dkmbDtoT_15{stroke-dasharray:126 128;stroke-dashoffset:127;animation:dkmbDtoT_draw 2000ms linear 937ms forwards;}.dkmbDtoT_16{stroke-dasharray:0 2;stroke-dashoffset:1;animation:dkmbDtoT_draw 2000ms linear 1000ms forwards;}@keyframes dkmbDtoT_draw{100%{stroke-dashoffset:0;}}@keyframes dkmbDtoT_fade{0%{stroke-opacity:1;}94.44444444444444%{stroke-opacity:1;}100%{stroke-opacity:0;}}</style></svg>